<?xml version="1.0" encoding="utf-8"?>
<!-- Generator: Adobe Illustrator 23.0.1, SVG Export Plug-In . SVG Version: 6.00 Build 0)  -->
<svg version="1.1" id="Layer_1" xmlns="http://www.w3.org/2000/svg" xmlns:xlink="http://www.w3.org/1999/xlink" x="0px" y="0px"
	 viewBox="0 0 32 32" style="enable-background:new 0 0 32 32;" xml:space="preserve">
<style type="text/css">
	.st0{fill:#702755;}
</style>
<g>
	<g>
		<g>
			<g>
				<g>
					<g>
						<path class="st0" d="M0.6,15.9c0,0,0.1,0.2,0.1,0.3C0.7,16.1,0.6,15.8,0.6,15.9z"/>
						<polygon class="st0" points="0.8,15.1 0.8,15.2 0.7,14.9 						"/>
						<path class="st0" d="M1.2,14.8c-0.3-0.4-0.1,0.2-0.3,0.1l-0.1-0.1L1,15.1C1.1,15,1,14.8,1.2,14.8z"/>
						<path class="st0" d="M1.9,15.6C1.8,15.4,1.9,15.4,1.9,15.6C1.8,15.6,1.8,15.6,1.9,15.6C1.9,15.6,1.9,15.6,1.9,15.6z"/>
						<path class="st0" d="M1.9,15.6C1.8,15.6,2,15.7,1.9,15.6L1.9,15.6z"/>
						<path class="st0" d="M2,15.4l0,0.2c0.1,0.1,0.1,0.1,0.1,0.2C2.2,15.6,2.1,15.5,2,15.4z"/>
						<path class="st0" d="M1.9,15L1.9,15C1.9,15.2,1.9,15.2,1.9,15z"/>
						<path class="st0" d="M1.9,15.3l0-0.2C1.9,15.1,1.8,14.9,1.9,15.3C1.8,15.1,1.9,15.2,1.9,15.3z"/>
						<path class="st0" d="M1.8,15.2c-0.1-0.1-0.2-0.1-0.2-0.3C1.6,15.1,1.8,15.4,1.8,15.2z"/>
						<path class="st0" d="M1,14.4l-0.1-0.1L1,14.4C0.9,14.4,1,14.5,1,14.4z"/>
						<path class="st0" d="M2.5,15.4c0-0.1-0.2-0.2-0.2-0.3l0,0.1C2.4,15.2,2.4,15.2,2.5,15.4z"/>
						<path class="st0" d="M2.3,15l0-0.2C2.2,14.9,2.2,15,2.3,15z"/>
						<polygon class="st0" points="1.7,14.6 1.7,15 1.7,14.6 						"/>
						<polygon class="st0" points="2.8,15.2 2.8,15.5 2.7,15.1 						"/>
						<path class="st0" d="M2.9,15.1c0.1,0.2,0.2,0.3,0.2,0.4c0-0.1,0-0.2-0.1-0.4C3.1,15.2,3,15.2,2.9,15.1z"/>
						<path class="st0" d="M3,14.9c0,0,0,0.1,0,0.2C3.1,15.1,3.1,15,3,14.9z"/>
						<path class="st0" d="M2.4,14.8c0,0,0.1,0.2,0.2,0.2L2.4,14.8C2.4,14.8,2.4,14.8,2.4,14.8z"/>
						<path class="st0" d="M2.4,14.8L2.4,14.8C2.5,14.8,2.5,14.8,2.4,14.8C2.5,14.8,2.5,14.8,2.4,14.8z"/>
						<path class="st0" d="M2.4,14.8C2.4,14.8,2.4,14.8,2.4,14.8C2.4,14.8,2.4,14.8,2.4,14.8z"/>
						<path class="st0" d="M2,14.7c0-0.2,0-0.3-0.2-0.5C1.8,14.4,1.9,14.5,2,14.7z"/>
						<path class="st0" d="M2.2,14.6l-0.1,0c0,0.1,0.1,0.1,0.1,0.2L2.2,14.6z"/>
						<polygon class="st0" points="2.2,14.5 2.2,14.6 2.2,14.6 						"/>
						<path class="st0" d="M2.8,14.7c0-0.1,0-0.1,0-0.2c-0.1,0-0.1,0-0.2,0C2.7,14.6,2.7,14.8,2.8,14.7z"/>
						<path class="st0" d="M2.6,14.8C2.6,14.8,2.6,14.7,2.6,14.8C2.6,14.7,2.6,14.7,2.6,14.8z"/>
						<path class="st0" d="M3.2,14.3C3.2,14.3,3.1,14.3,3.2,14.3C3.1,14.3,3.2,14.3,3.2,14.3L3.2,14.3z"/>
						<path class="st0" d="M2.6,14.5c-0.1,0,0,0,0,0.1C2.6,14.6,2.6,14.6,2.6,14.5C2.6,14.5,2.6,14.5,2.6,14.5z"/>
						<path class="st0" d="M3.1,14.7c0,0-0.1-0.1-0.1-0.1C3,14.7,3.1,14.8,3.1,14.7z"/>
						<path class="st0" d="M2.6,14.8C2.6,14.8,2.6,14.8,2.6,14.8C2.7,14.9,2.7,14.8,2.6,14.8z"/>
						<path class="st0" d="M2.6,14.8c0,0,0-0.1,0-0.2C2.6,14.7,2.6,14.7,2.6,14.8C2.6,14.8,2.6,14.8,2.6,14.8z"/>
						<path class="st0" d="M2.4,12.7c0.1,0.2,0.2,0.5,0,0.3c0,0.2,0.5,0.9,0.8,1.3C3.1,14.2,3,14.1,3,13.9c-0.1-0.1-0.3-0.2-0.4-0.4
							c0-0.2,0.1,0,0.2,0.1c-0.2-0.3-0.1-0.5-0.4-0.9l0,0.2C2.5,12.9,2.4,12.8,2.4,12.7z"/>
						<path class="st0" d="M3,14.4L3,14.4c0,0.1,0.1,0.1,0.3,0.3c0-0.1-0.1-0.2-0.1-0.3L3,14.4L3,14.4z"/>
						<path class="st0" d="M2.9,14.5c-0.1-0.3-0.1-0.4-0.3-0.6c-0.1,0.1,0.1,0.2,0.1,0.4C2.7,14.1,2.7,14.4,2.9,14.5
							C2.8,14.5,2.8,14.5,2.9,14.5c0,0.1,0,0.1,0.1,0.1c0,0,0,0,0,0l0,0c0,0,0,0,0,0c0,0,0,0,0,0C2.9,14.6,2.9,14.6,2.9,14.5
							C2.9,14.5,2.9,14.5,2.9,14.5C2.9,14.5,2.9,14.5,2.9,14.5c0.1,0.1,0.1,0.1,0.1,0.1c0,0,0,0,0,0L3,14.4
							C2.9,14.4,2.9,14.4,2.9,14.5z"/>
						<path class="st0" d="M1.5,13.6C1.5,13.7,1.5,13.7,1.5,13.6C1.5,13.7,1.5,13.6,1.5,13.6z"/>
						<path class="st0" d="M1.6,13.8c0,0,0.1,0.1,0,0.1c-0.1-0.1-0.1-0.1-0.1-0.2c0,0.1,0,0.2,0.2,0.3l0,0C1.8,14,2,14.3,2,14.3
							C1.9,14.1,1.8,14,1.6,13.8z"/>
						<path class="st0" d="M2.2,14.1l0-0.2l-0.2-0.2l0.1,0.1C2.1,13.8,2.2,14,2.2,14.1z"/>
						<polygon class="st0" points="3.3,14.5 3.4,14.7 3.2,14.3 						"/>
						<polygon class="st0" points="3.4,14.3 3.5,14.6 3.5,14.4 						"/>
						<path class="st0" d="M10,6.9L10,6.9C9.9,6.8,9.9,6.8,10,6.9z"/>
						<path class="st0" d="M9.7,7l0.1,0.1C9.7,7,9.7,7,9.7,7z"/>
						<path class="st0" d="M6.9,12.3c0.2,0.2,0.4,0.5,0.3,0.2L7,12.3C7,12.3,7,12.3,6.9,12.3z"/>
						<path class="st0" d="M8.5,9.4C8.5,9.4,8.5,9.4,8.5,9.4c0,0,0,0.1,0,0.2C8.5,9.5,8.5,9.5,8.5,9.4z"/>
						<path class="st0" d="M8,8.4l0.2,0.1C8.1,8.4,8,8.4,8,8.4z"/>
						<path class="st0" d="M11.1,5.9L11,5.6C10.9,5.6,11,5.7,11.1,5.9z"/>
						<path class="st0" d="M4.8,13.4C4.9,13.5,5,13.5,5,13.5C4.9,13.4,4.7,13.2,4.8,13.4z"/>
						<path class="st0" d="M11.4,9.5c0-0.1,0-0.1-0.1-0.2C11.3,9.4,11.3,9.5,11.4,9.5z"/>
						<path class="st0" d="M5.1,13.4C5.1,13.4,5.1,13.4,5.1,13.4c-0.1,0-0.1,0.1-0.1,0.1C5.1,13.6,5.2,13.6,5.1,13.4z"/>
						<path class="st0" d="M15.9,3.4C15.9,3.4,15.9,3.4,15.9,3.4C15.9,3.3,15.9,3.3,15.9,3.4z"/>
						<path class="st0" d="M18.7,5C18.7,5.1,18.7,5.1,18.7,5C18.7,5.1,18.7,5.1,18.7,5z"/>
						<path class="st0" d="M4,14.1C4,14.1,4,14.1,4,14.1L4,14.1z"/>
						<path class="st0" d="M3.3,13.2c0,0,0-0.1-0.1-0.1C3.3,13.2,3.3,13.2,3.3,13.2z"/>
						<path class="st0" d="M4.5,11.7C4.5,11.7,4.5,11.7,4.5,11.7C4.5,11.7,4.5,11.7,4.5,11.7z"/>
						<path class="st0" d="M3.9,14C3.9,14.1,4,14.1,3.9,14C4,14.1,4,14,3.9,14z"/>
						<path class="st0" d="M4,14.1C4,14.1,4,14.1,4,14.1C4,14.2,4,14.2,4,14.1z"/>
						<path class="st0" d="M4.1,14.1C4,14.1,4,14.1,4.1,14.1C4,14.1,4,14.1,4.1,14.1C4,14.1,4,14.1,4.1,14.1z"/>
						<path class="st0" d="M13.8,5.5C13.8,5.5,13.8,5.5,13.8,5.5C13.8,5.4,13.8,5.4,13.8,5.5z"/>
						<polygon class="st0" points="6.3,9.3 6.3,9.3 6.3,9.3 						"/>
						<path class="st0" d="M6.3,9c0.1,0.3,0.1,0.3,0,0.3L6.7,10L6.3,9z"/>
						<path class="st0" d="M10.5,6.5l-0.2-0.2c-0.1-0.4,0-0.3-0.2-0.6c0.4,0.8-0.3,0.3,0.2,1l-0.1-0.1c0,0,0,0,0,0
							c-0.3-0.3,0.2,0.6,0.1,0.6C10.1,7.1,10,7,10,6.9l0,0.2c0,0-0.1-0.1-0.1-0.1L9.8,7.1l0,0c0,0.1,0.1,0.3,0.1,0.4
							c-0.1-0.1,0-0.1-0.1-0.2l0,0.2C9.7,7.4,9.6,7.2,9.7,7.2c-0.5-0.7,0,0.2-0.4-0.1l0-0.1C9,6.5,9.1,6.7,8.8,6.5
							c0.1,0.1,0.6,0.6,0.6,0.8c-0.1,0-0.1-0.1-0.1,0.1C9.2,7.2,9.2,7.3,9.1,7.3L8.9,7c0,0.1,0.1,0.3,0.2,0.5C9,7.5,8.8,7.2,8.7,7
							C8.5,7,9,7.4,8.9,7.5C8.7,7.4,8.7,7.6,8.8,7.9C8.6,7.8,8.6,7.7,8.6,7.6l0.1,0.3c0,0-0.1-0.1-0.1-0.1c0,0.1,0.2,0.4,0.2,0.5
							c0.2,0.4-0.5-0.5-0.3,0C8.3,8.2,8.3,8.1,8.2,7.9c0,0.4,0,0.3,0.1,0.7L8.1,8.5c0.2,0.2,0.3,0.6,0.4,0.9
							c0.1,0.1,0.2,0.2,0.2,0.3l0,0.3c0-0.1-0.1-0.2-0.2-0.3c0,0,0,0.1,0,0.1C8.5,9.6,8.4,9.4,8.3,9.1c0.1,0.1,0.1,0.1,0.2,0.2
							C8.4,9.1,8.2,8.8,8.1,8.6c0,0,0,0.1,0,0.1c0-0.1-0.1-0.1-0.1-0.2c0,0,0,0.1,0,0.2L7.8,8.4l0.1,0.2L7.6,8.4
							C7.7,8.8,8,9.5,7.9,9.8C7.8,9.5,7.6,9.3,7.4,8.9c0.3,0.3,0.1-0.2,0.2-0.2c-0.1,0-0.2-0.2-0.2-0.2l0,0.4
							C7.3,8.6,7.3,8.7,7.2,8.6c0.4,0.5,0.1,0.4,0.1,0.7C7.2,9.1,7.1,8.9,7.2,8.9c-0.3-0.4,0.3,0.7,0,0.4c0,0,0,0,0-0.1
							C7.2,9.4,7,9.3,7,9.2l0,0c-0.2,0-0.4,0.2-0.2,0.7c0-0.1-0.3-0.6-0.4-0.7l0.7,1.8c-0.2-0.4-0.9-1.4-0.9-1.7
							c-0.1,0-0.1-0.1-0.1,0.1c0.1,0,0.4,0.6,0.4,0.6C6.2,9.6,6.3,9.8,6,9.5c0.1,0.1,0.4,0.7,0.4,0.7C6.3,10.1,6,9.6,6,9.5l0.2,0.7
							c0-0.1-0.3-0.5-0.4-0.7c0.1,0.1-0.1,0.1-0.1,0.1l0.1,0.1c-0.2,0,0.4,1,0.2,1c-0.1-0.1-0.4-0.8-0.5-0.9c0.2,0.3,0.7,1.6,0.8,2
							l-0.1-0.2l0,0.3c-0.2-0.5-0.6-1.7-0.8-2.1C5.2,9.8,5.2,9.7,5.1,9.7C5,9.6,5,9.4,5,9.4l-0.3,0C5,9.8,4.8,9.9,5,10.2l0-0.5
							c0.2,0.4,0.5,1.1,0.3,1.2C5.2,10.7,5,10.1,4.9,10c0.1,0.1,0,0.3-0.1,0.2L4.8,10c-0.2-0.1,0.2,0.6-0.1,0.3c0,0-0.4-0.4-0.3-0.2
							c0.3,0.4,1.1,1.7,1.2,2.1c0,0-0.4-0.3-0.6-0.5c-0.2-0.3-0.4-0.9-0.6-1.1c0.1,0.1,0.1,0.2,0.1,0.3c-0.1-0.1-0.2-0.3-0.2-0.2
							c0.2,0.4-0.2,0.1,0.2,0.3c0,0.2-0.1,0-0.2,0c0.2,0.2,0.4,0.9,0.4,1c-0.1-0.1-0.1-0.2-0.2-0.3c-0.2,0-0.3-0.1-0.5,0
							c-0.1-0.1-0.2-0.2-0.3-0.3c0,0.1,0.1,0.2,0,0.3c-0.3-0.3,0.1-0.1-0.2-0.5c0.1,0.2,0.1,0.4,0.1,0.5c0.2,0.3,0.2,0,0.2-0.2
							c0.3,0.5,0.5,1,0.4,1.3c0,0.2-0.2-0.3-0.2-0.2c-0.3,0,0.3,0.9-0.1,0.7c-0.2-0.3-0.4-0.6-0.5-0.8c0-0.2,0.3,0.1,0.3,0.1
							l-0.2-0.1c0-0.1,0-0.2,0.1-0.2c-0.2-0.2-0.4,0.2-0.7,0c0,0.1,0,0.3,0.1,0.4l0-0.1c0.2,0.2,0.1,0.4,0.2,0.5
							c0,0.2,0.1,0.5-0.1,0.4l-0.2-0.3c0.1,0.1,0.2,0.2,0.1,0c0,0.2-0.4-0.4-0.2,0.1l0.2,0.2c0,0.2,0.2,0.6,0,0.6
							c0.2,0.3,0-0.1,0.3,0.3c-0.3-0.5,0.2-0.1-0.2-0.6C3.8,14.3,3.7,14,4,14.3c-0.1-0.1-0.2-0.2-0.1-0.2c0,0,0-0.1,0-0.1
							c0,0,0,0,0,0c0,0,0,0,0,0c0,0,0,0,0,0c0,0-0.1-0.1-0.1-0.2c-0.1-0.3,0-0.3,0-0.5c0.1,0,0.1,0.1,0.2,0.2l-0.1-0.2
							c0.2,0.2,0.4,0.4,0.3,0.6l0.1,0c0.1,0.1,0.2,0.1,0.2,0c0.1,0-0.1-0.3,0-0.1l0.1-0.2l0,0.1c0.2,0,0-0.6,0.5-0.2
							c0-0.1,0-0.2,0.1-0.2l0.1,0.2c0-0.1,0.3,0.1,0.2-0.1c0.4,0.6,0.4,0,0.5,0L5.9,13C6,13,6,12.9,6,12.7l-0.2-0.2
							c0-0.3,0.3,0.1,0.4,0c0,0.1,0,0.1-0.1,0c0.5,0.5,0.1-0.6,0.4-0.3c0-0.1,0-0.1,0.1,0c0,0,0,0,0,0c0,0,0,0,0,0
							c0,0,0.1,0.1,0.1,0.1c0-0.1-0.1-0.1-0.1-0.1c0,0,0-0.1,0-0.2L7,12.3c0,0,0,0,0,0c0.1,0.1,0-0.1-0.2-0.3c0-0.1,0-0.1,0-0.2
							c0.3,0.4,0-0.2,0.3,0.2C7,11.7,7.2,11.7,7,11.2c0,0.1,0.1,0.1,0,0.1c0.1,0,0.1,0.1,0.1-0.1l0.2,0.3L7.2,11
							c0.2,0.2,0.3,0.3,0.4,0.6c-0.1-0.5,0-0.2-0.1-0.7l0.1,0.2c0,0-0.1-0.4,0.1-0.2c0.3,0.4,0.5-0.2,1,0.1c-0.4-0.6,0.3,0.2,0-0.3
							c0.1,0.1,0.2,0.2,0.2,0.4c0-0.2,0.3,0.1,0.2-0.3c0.1,0.1,0.1,0.2,0.2,0.3c0,0,0-0.2,0-0.1c0.1,0.1,0.1,0.1,0.1,0.2
							c0.1-0.1-0.2-0.6-0.4-1C9,10.3,9,10.3,8.9,10c0.1,0.1,0.2,0.3,0.2,0.4c0.1,0,0.4,0.1,0.2-0.3c0.1,0.1,0.1,0,0.1-0.1
							c0.1,0,0.1,0,0.2-0.1l-0.1,0c-0.2-0.5,0-0.1,0.1-0.2l0,0c0.4,0.2,0-0.2,0.4,0.1L9.8,9.4c-0.3-0.6,0.4,0.3,0.3,0L10,9.3
							C9.9,9.1,10.6,10,10.7,10c0,0,0,0.1,0,0.1c0.3,0.3-0.2-0.4-0.1-0.5c0.1,0.2,0.3,0.5,0.3,0.5c0.1,0.1-0.1-0.7,0.2-0.4
							c-0.1-0.1-0.2-0.3-0.2-0.4c0-0.1,0.5,0.4,0.3-0.1c0,0,0.1,0.1,0.1,0.1c0-0.2,0.1-0.3,0-0.6c0.6,0.9,0.1-0.7,0.6,0.2L12,8.8
							l0,0.1c0.1,0,0.1-0.2,0-0.5c0.1,0,0.1,0.1,0.1,0.2c0.3,0.1,0.3,0,0.2-0.5l0.2,0.3C12.4,8.2,13,8.7,13,8.3c0,0,0,0.1,0.1,0.1
							c0-0.4,0.9,0.5,0.4-0.5l0-0.3c-0.2,0-0.2-0.5-0.4-0.6c0-0.1,0.3,0.2,0.3,0.3l0,0c0.3,0.5,0.3,0.1,0.5,0.4
							c0.3-0.2,0.8-0.1,1.1-0.2L14.6,7l0.1,0c0.1,0.1,0.2,0.3,0.1,0.3c0.2,0.2,0-0.3,0-0.4C15,7.1,15,7.5,15,7.5l0-0.1l0,0
							C15,7.2,14.9,7,15,7c0.1,0.1,0.2,0.2,0.2,0.2c0,0,0,0,0,0l0.1,0l-0.2-0.3c0-0.2,0.1-0.1-0.1-0.4c0.4,0.5,0.6-0.1,0.8,0.1
							c-0.1-0.3,0-0.3,0.1-0.4c-0.1-0.1-0.3-0.4-0.2-0.4c0.4,0.8,0.3,0.2,0.7,0.7c-0.3-0.3,0.2-0.2-0.2-0.7c0.1,0,0.2,0.3,0.3,0.4
							c0-0.4,0.5,0,0.6-0.2C17.1,5.9,17,5.8,17,5.6l0.4,0.4c0-0.1-0.3-0.6,0-0.3c-0.1-0.1-0.1-0.2-0.1-0.2c0.7,0.2,0.6-0.9,1.5-0.2
							c-0.2-0.2-0.1-0.2-0.1-0.2c-0.1,0-0.1-0.2-0.2-0.4L18.8,5c-0.2-0.4,0.2-0.1,0-0.5l0,0.1c-0.2-0.5-0.6-0.9-0.9-1.4
							c0.2,0.5-0.6-0.6-0.4,0.2c-0.1-0.1-0.1-0.2-0.2-0.3c0.1,0.3,0.1,0.3,0,0.3l0-0.1c-0.2,0.2-0.4,0-0.7,0l0.2,0.3
							c-0.1,0-0.1-0.1-0.2-0.1c0.2,0.4,0.2-0.1,0.4,0.4c-0.4-0.5-0.4,0.2-0.8-0.4c-0.1,0,0.2,0.3,0.1,0.3l-0.1-0.2l0.1,0.2
							c-0.1,0-0.2-0.2-0.3-0.3c0,0,0-0.1,0-0.1c-0.2-0.2-0.2,0.2-0.2,0.1l0.1,0.1c-0.1,0.3-0.5,0.2-0.5,0.7l0.1,0.1
							c0,0.3-0.2-0.1-0.3,0.1l0,0c0,0.1,0,0.2,0,0.2c0-0.2-0.2-0.2-0.3-0.4c0,0.3,0,0.2,0.2,0.8l-0.1-0.2c0.1,0.2,0.1,0.3,0.1,0.4
							c0-0.2-0.2-0.3-0.3-0.6c-0.4-0.4,0,0.6-0.5,0c0.2,0.6,0.3,0.2,0.4,0.4c0.1,0.2,0.2,0.5,0.1,0.4c-0.1,0-0.5-0.7-0.7-0.6
							c0,0,0,0,0-0.1c-0.1-0.1,0,0.3-0.2,0.1c0.2,0.4-0.1,0,0.1,0.5l0.1-0.2c0,0.2,0.2,0.7-0.1,0.5c0-0.1-0.1-0.2-0.1-0.3
							c-0.1-0.1,0,0.1-0.1,0c-0.2-0.5,0.1-0.2,0-0.6c-0.1-0.2,0,0.4-0.2-0.1c0.3,0.6-0.2,0,0,0.5l-0.1-0.3c0,0.1,0,0.2,0,0.2
							l-0.1-0.4c0.1,0.3-0.3-0.2-0.3,0c0.2-0.1,0.2,0.3,0.4,0.5c0,0.5-0.5-0.6-0.7-0.4c0-0.1,0.2,0.1,0.2,0.2
							c-0.1,0-0.2-0.1-0.3-0.2c-0.1,0.1,0.2,0.3,0.2,0.5c-0.2-0.3,0,0.2,0,0.3l-0.2-0.3c-0.3-0.1,0.3,0.6,0,0.5l-0.2-0.4l0,0.1
							l-0.2-0.3c0,0.3,0,0.2-0.1,0.2c0.1,0.2,0.3,0.5,0.2,0.6C12.1,6,12.2,5.9,12.1,6c-0.1-0.2-0.2-0.4,0-0.2c0-0.1-0.1-0.2-0.1-0.3
							c-0.2-0.2-0.2,0-0.2,0.1c0,0,0,0,0.1,0l0.1,0.5c-0.1-0.1-0.1-0.2-0.1-0.3c0,0,0,0.2,0,0.2c-0.1-0.2-0.2-0.5-0.2-0.6l0,0.3
							c-0.1-0.1-0.2-0.2-0.3-0.3c-0.2-0.1,0,0.5-0.2,0.4c0,0,0,0.1,0,0.1c-0.1,0-0.4-0.2-0.3,0.2l-0.3-0.4c0,0.1,0.4,0.4,0.3,0.7
							c0,0.2-0.2-0.3-0.3-0.4C10.6,6.4,10.7,6.8,10.5,6.5C10.4,6.5,10.5,6.5,10.5,6.5z M9.4,7.3c0-0.1-0.1-0.3,0-0.1
							C9.6,7.5,9.5,7.4,9.4,7.3z M8,9c0-0.1,0-0.1,0.1,0C8.1,9,8.1,9,8,9z M4.2,13.7C4.2,13.7,4.2,13.7,4.2,13.7
							C4.3,13.8,4.3,13.7,4.2,13.7z M4.1,13.6c0,0,0,0.1,0.1,0.1C4.1,13.7,4.1,13.7,4.1,13.6C4.1,13.6,4.1,13.6,4.1,13.6z M15.2,7.1
							L15.2,7.1C15.1,6.9,15.1,7,15.2,7.1z"/>
						<path class="st0" d="M8,8.5c0,0,0.1,0.1,0.1,0.1C8.1,8.6,8.1,8.5,8,8.5z"/>
						<path class="st0" d="M11.1,5.9C11.1,5.9,11.1,5.9,11.1,5.9C11.1,5.9,11.1,5.9,11.1,5.9L11.1,5.9z"/>
						<path class="st0" d="M4.3,10.4c0,0,0.1,0.1,0.1,0.1C4.4,10.5,4.4,10.4,4.3,10.4z"/>
						<path class="st0" d="M3.8,14.4l0-0.1c0,0-0.1,0-0.1-0.1C3.7,14.3,3.8,14.4,3.8,14.4z"/>
						<path class="st0" d="M2.2,13.1C2.2,13.1,2.2,13.1,2.2,13.1l0.1,0.2C2.3,13.2,2.3,13.1,2.2,13.1z"/>
						<path class="st0" d="M3.2,13.6c-0.1-0.2-0.1-0.1-0.2-0.1c0,0,0,0,0,0C3.2,13.8,3.2,13.7,3.2,13.6z"/>
						<path class="st0" d="M3,13.5C3,13.5,3,13.5,3,13.5C3.1,13.7,3,13.6,3,13.5z"/>
						<path class="st0" d="M4,13.9c-0.1,0,0.2,0.3,0.1,0.2C4.2,14.4,4,13.6,4,13.9z"/>
						<polygon class="st0" points="2.7,12.8 2.9,13.1 2.8,12.9 						"/>
						<path class="st0" d="M3.2,12.8l-0.1,0C3.1,12.8,3.1,12.9,3.2,12.8C3.2,12.9,3.3,12.9,3.2,12.8z"/>
						<path class="st0" d="M3.1,12.9C3.1,12.9,3.1,12.9,3.1,12.9C3.1,13,3.1,12.9,3.1,12.9z"/>
						<polygon class="st0" points="2.8,12.7 2.8,12.7 2.9,12.7 						"/>
						<path class="st0" d="M4,12.4l0-0.1C4,12.2,4,12.1,4,12.2C4,12.3,4,12.3,4,12.4z"/>
						<path class="st0" d="M3.3,11.8c0.1,0,0.1,0.1,0.2,0.2l-0.2-0.4L3.3,11.8z"/>
						<path class="st0" d="M3.5,11.6c0-0.1,0-0.3-0.1-0.3C3.5,11.4,3.4,11.5,3.5,11.6z"/>
						<polygon class="st0" points="5,11.3 5,11.3 5.3,11.9 						"/>
						<path class="st0" d="M5.3,9.3c-0.2-0.1,0.2,0.4,0,0.2c0.1,0.1,0.2,0.1,0.2,0.2C5.5,9.6,5.6,9.7,5.3,9.3z"/>
						<path class="st0" d="M5.5,9.8c0,0,0,0.1,0,0.1C5.5,9.8,5.5,9.8,5.5,9.8z"/>
						<polygon class="st0" points="19.1,5.2 19.2,5.3 19.1,5.1 						"/>
						<path class="st0" d="M19,4.7l0.2,0.4L19,4.7C19,4.7,19,4.8,19,4.7z"/>
						<path class="st0" d="M8.8,6.7L8.8,6.7C8.9,6.9,9,6.9,9,6.9L8.8,6.7z"/>
						<polygon class="st0" points="9.8,6.5 9.8,6.5 10,6.8 						"/>
						<path class="st0" d="M10.3,5.6C10.2,5.6,10.3,5.7,10.3,5.6C10.2,5.6,10.5,6,10.3,5.6z"/>
					</g>
				</g>
			</g>
		</g>
	</g>
	<g>
		<g>
			<g>
				<g>
					<g>
						<path class="st0" d="M30.6,7.1c0,0,0.1-0.2,0.1-0.3C30.7,6.8,30.6,7.1,30.6,7.1z"/>
						<polygon class="st0" points="30.1,7.5 30.2,7.4 30,7.7 						"/>
						<path class="st0" d="M29.9,7.4c-0.1,0.4,0.1,0,0.1,0.1l0,0.1l0.2-0.3C30,7.4,29.9,7.6,29.9,7.4z"/>
						<path class="st0" d="M30.1,6.4C30,6.6,30,6.6,30.1,6.4C30.1,6.5,30.1,6.5,30.1,6.4C30.1,6.5,30.1,6.5,30.1,6.4z"/>
						<path class="st0" d="M30.1,6.5C30.1,6.5,30.1,6.3,30.1,6.5L30.1,6.5z"/>
						<path class="st0" d="M29.9,6.5L30,6.4c0-0.1,0-0.1,0-0.2C30,6.2,30,6.3,29.9,6.5z"/>
						<path class="st0" d="M29.8,6.8L29.8,6.8C29.8,6.7,29.8,6.7,29.8,6.8z"/>
						<path class="st0" d="M29.9,6.6l-0.1,0.1C29.8,6.8,29.8,7,29.9,6.6C29.8,6.8,29.9,6.7,29.9,6.6z"/>
						<path class="st0" d="M29.9,6.7c0,0.1,0,0.2-0.1,0.3C29.9,7,30,6.7,29.9,6.7z"/>
						<path class="st0" d="M29.7,7.9l0,0.1L29.7,7.9C29.7,7.9,29.7,7.7,29.7,7.9z"/>
						<path class="st0" d="M29.8,6.2c0,0.1-0.1,0.3-0.1,0.4l0.1-0.1C29.7,6.4,29.7,6.3,29.8,6.2z"/>
						<path class="st0" d="M29.7,6.6l-0.1,0.1C29.6,6.7,29.6,6.7,29.7,6.6z"/>
						<polygon class="st0" points="29.6,7.3 29.8,7 29.6,7.3 						"/>
						<polygon class="st0" points="29.6,6.1 29.7,5.9 29.6,6.2 						"/>
						<path class="st0" d="M29.5,6.1c0.1-0.2,0.1-0.3,0.1-0.4c0,0-0.1,0.2-0.2,0.3C29.5,5.9,29.5,6,29.5,6.1z"/>
						<path class="st0" d="M29.4,6.2c0,0,0.1-0.1,0.1-0.2C29.4,6,29.4,6.1,29.4,6.2z"/>
						<path class="st0" d="M29.5,6.6c0-0.1,0.1-0.2,0.1-0.3L29.5,6.6C29.5,6.6,29.5,6.6,29.5,6.6z"/>
						<path class="st0" d="M29.5,6.6L29.5,6.6C29.5,6.6,29.5,6.6,29.5,6.6C29.5,6.6,29.5,6.6,29.5,6.6z"/>
						<path class="st0" d="M29.5,6.6C29.5,6.6,29.5,6.6,29.5,6.6C29.5,6.7,29.5,6.7,29.5,6.6z"/>
						<path class="st0" d="M29.6,7c-0.1,0.1-0.2,0.3-0.2,0.5C29.4,7.4,29.5,7.2,29.6,7z"/>
						<path class="st0" d="M29.4,7L29.4,7c0,0,0.1-0.1,0.1-0.2L29.4,7z"/>
						<polygon class="st0" points="29.4,7 29.4,7 29.4,6.9 						"/>
						<path class="st0" d="M29.3,6.5c-0.1,0.1-0.1,0.1-0.1,0.1c0,0.1,0,0.1,0,0.1C29.3,6.6,29.4,6.5,29.3,6.5z"/>
						<path class="st0" d="M29.4,6.6C29.4,6.6,29.4,6.6,29.4,6.6C29.4,6.6,29.4,6.6,29.4,6.6z"/>
						<path class="st0" d="M29,6.5C29,6.5,29,6.5,29,6.5C29,6.5,29,6.5,29,6.5L29,6.5z"/>
						<path class="st0" d="M29.3,6.7C29.3,6.8,29.3,6.7,29.3,6.7C29.3,6.7,29.3,6.7,29.3,6.7C29.3,6.7,29.2,6.7,29.3,6.7z"/>
						<path class="st0" d="M29.2,6.3c0,0.1,0,0.1,0,0.2C29.2,6.4,29.3,6.2,29.2,6.3z"/>
						<path class="st0" d="M29.4,6.5C29.4,6.5,29.4,6.5,29.4,6.5C29.4,6.4,29.4,6.5,29.4,6.5z"/>
						<path class="st0" d="M29.4,6.5c0,0-0.1,0.1-0.1,0.1C29.4,6.6,29.4,6.6,29.4,6.5C29.4,6.6,29.4,6.5,29.4,6.5z"/>
						<path class="st0" d="M28.3,8.1c0.1-0.2,0.2-0.4,0.2-0.2c0.1-0.2,0.4-1,0.5-1.4c0,0.1-0.1,0.2-0.2,0.3c0,0.1,0,0.3-0.1,0.5
							c-0.1,0.1,0-0.1,0-0.2c-0.1,0.3-0.2,0.4-0.4,0.9l0.1-0.1C28.4,8,28.3,8.1,28.3,8.1z"/>
						<path class="st0" d="M29.1,6.6L29.1,6.6c0-0.1,0-0.2,0.1-0.4C29.1,6.3,29,6.4,29,6.5L29.1,6.6L29.1,6.6z"/>
						<path class="st0" d="M29.2,6.6C29,6.9,29,6.9,28.9,7.2c0.1,0,0.1-0.2,0.2-0.3C29,7,29.2,6.8,29.2,6.6
							C29.2,6.6,29.2,6.6,29.2,6.6c0.1-0.1,0.1-0.1,0.1-0.2c0,0,0,0,0,0l0,0c0,0,0,0,0,0c0,0,0,0.1,0,0C29.2,6.5,29.2,6.5,29.2,6.6
							C29.2,6.5,29.2,6.6,29.2,6.6C29.2,6.5,29.2,6.5,29.2,6.6c0-0.1,0.1-0.1,0.1-0.1c0,0,0,0,0,0L29.2,6.6
							C29.1,6.6,29.1,6.6,29.2,6.6z"/>
						<path class="st0" d="M29.1,8.1C29.1,8,29.1,8,29.1,8.1C29.1,8,29.1,8.1,29.1,8.1z"/>
						<path class="st0" d="M29.1,7.9c0,0,0.1-0.1,0.1-0.1c0,0.1,0,0.1-0.1,0.2c0-0.1,0.1-0.2,0.1-0.3l0,0c0-0.1,0.1-0.4,0.1-0.5
							C29.2,7.5,29.2,7.7,29.1,7.9z"/>
						<path class="st0" d="M29.1,7.3L29,7.4l0,0.2l0-0.1C29,7.6,29.1,7.4,29.1,7.3z"/>
						<polygon class="st0" points="29,6.4 29.1,6.1 29,6.5 						"/>
						<polygon class="st0" points="28.9,6.4 29,6.1 28.9,6.2 						"/>
						<path class="st0" d="M22.6,7.4L22.6,7.4C22.6,7.4,22.6,7.4,22.6,7.4z"/>
						<path class="st0" d="M22.7,7.5l0-0.1C22.8,7.4,22.7,7.4,22.7,7.5z"/>
						<path class="st0" d="M26.7,5.5c0.1-0.2,0.2-0.6,0.1-0.3L26.7,5.5C26.7,5.4,26.7,5.5,26.7,5.5z"/>
						<path class="st0" d="M24.5,6.5C24.5,6.5,24.5,6.6,24.5,6.5c0,0,0.1-0.1,0.1-0.2C24.6,6.4,24.5,6.5,24.5,6.5z"/>
						<path class="st0" d="M24.1,7.6l0-0.2C24.1,7.5,24.1,7.5,24.1,7.6z"/>
						<path class="st0" d="M21.7,7.3l-0.1,0.3C21.6,7.6,21.6,7.5,21.7,7.3z"/>
						<path class="st0" d="M27.9,6.1c0-0.1,0-0.2,0-0.2C27.9,6.1,27.9,6.3,27.9,6.1z"/>
						<path class="st0" d="M23.7,4.6c0,0-0.1,0.1-0.1,0.2C23.7,4.7,23.7,4.7,23.7,4.6z"/>
						<path class="st0" d="M27.9,5.9C27.9,5.9,27.9,5.9,27.9,5.9C27.9,5.9,27.9,5.9,27.9,5.9C28,5.8,28,5.7,27.9,5.9z"/>
						<path class="st0" d="M18.8,6C18.8,6,18.8,6,18.8,6C18.8,6,18.8,6,18.8,6z"/>
						<path class="st0" d="M18.9,3C18.9,3,18.9,3,18.9,3C18.9,3,18.9,3,18.9,3z"/>
						<path class="st0" d="M28.6,6.1C28.6,6.1,28.6,6.1,28.6,6.1L28.6,6.1z"/>
						<path class="st0" d="M28.3,7.2c0,0,0,0.1-0.1,0.1C28.3,7.2,28.3,7.2,28.3,7.2z"/>
						<path class="st0" d="M27.1,7.5C27.1,7.4,27.1,7.4,27.1,7.5C27,7.5,27,7.5,27.1,7.5z"/>
						<path class="st0" d="M28.6,6.2C28.6,6.2,28.6,6.2,28.6,6.2C28.6,6.2,28.6,6.2,28.6,6.2z"/>
						<path class="st0" d="M28.6,6.1C28.6,6.1,28.6,6.1,28.6,6.1C28.7,6.1,28.7,6.1,28.6,6.1z"/>
						<path class="st0" d="M28.6,6.1C28.6,6.1,28.6,6.1,28.6,6.1C28.6,6.1,28.6,6.1,28.6,6.1C28.6,6.1,28.6,6.1,28.6,6.1z"/>
						<path class="st0" d="M20.6,5.9C20.6,5.9,20.6,5.9,20.6,5.9C20.6,6,20.6,6,20.6,5.9z"/>
						<polygon class="st0" points="25.1,8.1 25.1,8.1 25.1,8.1 						"/>
						<path class="st0" d="M25,8.2c0.2-0.3,0.2-0.3,0.2-0.2l0.3-0.8L25,8.2z"/>
						<path class="st0" d="M22.2,7.3l0,0.3C22,7.9,22,7.8,21.9,8.1c0.3-0.8,0.2,0,0.5-0.8l0,0.2c0,0,0,0,0,0
							c-0.1,0.4,0.3-0.6,0.3-0.4c0,0.1,0,0.2-0.1,0.3l0.1-0.2c0,0,0,0.2-0.1,0.1l0.1,0l0,0C22.9,7.2,23,7,23,6.9
							c0,0.1,0,0.1-0.1,0.2l0.1-0.2c-0.1,0.2-0.2,0.4-0.2,0.4c-0.3,0.8,0.1-0.2,0,0.3l-0.1,0.1c-0.1,0.5,0,0.3-0.1,0.6
							c0-0.2,0.2-0.8,0.3-1c0,0.1,0,0.1,0.1,0c-0.1,0.3-0.1,0.2,0,0.2L23,8c0.1-0.1,0.2-0.3,0.2-0.5c0,0.1-0.1,0.4-0.2,0.6
							c0.1,0.1,0.1-0.5,0.2-0.5c0,0.2,0.1,0,0.3-0.2c0,0.2-0.1,0.2-0.1,0.4l0.2-0.3c0,0,0,0.1-0.1,0.2c0.1-0.1,0.1-0.4,0.2-0.5
							c0.2-0.4-0.1,0.7,0.1,0.2c0,0.1-0.1,0.2-0.1,0.4c0.2-0.3,0.2-0.2,0.4-0.6l0,0.3c0.1-0.3,0.3-0.6,0.4-0.9
							c0-0.1,0.1-0.3,0.1-0.3L24.8,6c0,0.1-0.1,0.2-0.1,0.4c0,0,0-0.1,0-0.1c0,0.2-0.1,0.4-0.2,0.6c0-0.1,0-0.2,0.1-0.3
							c-0.1,0.2-0.2,0.5-0.3,0.7c0,0,0-0.1,0.1-0.1c0,0.1-0.1,0.1-0.1,0.2c0,0,0,0,0.1-0.1l-0.1,0.4l0.1-0.2l0,0.3
							c0.2-0.4,0.5-1,0.7-1.2c-0.1,0.3-0.2,0.5-0.3,0.9c0.1-0.4-0.2,0.1-0.2,0c0,0.1-0.1,0.2-0.1,0.3l0.2-0.3
							c-0.1,0.3-0.1,0.2-0.1,0.4c0.2-0.6,0.2-0.4,0.3-0.5c-0.1,0.2-0.2,0.4-0.2,0.3c-0.1,0.5,0.3-0.7,0.3-0.3c0,0,0,0-0.1,0.1
							c0.1-0.2,0.1,0,0,0.2l0,0c0.1,0.1,0.3,0.1,0.5-0.4C25.3,7.3,25,7.9,25,8l0.8-1.7c-0.2,0.4-0.5,1.5-0.7,1.7c0,0.1,0,0.2,0.1,0
							c0-0.1,0.2-0.7,0.2-0.7c-0.1,0.5-0.1,0.3-0.2,0.7c0-0.1,0.3-0.8,0.3-0.8c0,0.1-0.3,0.7-0.3,0.8l0.3-0.7
							c-0.1,0.1-0.2,0.6-0.3,0.8c0-0.1,0.1,0,0.1,0l0-0.2c0.1,0.1,0.5-0.9,0.5-0.9c-0.1,0.1-0.4,0.9-0.3,1c0.2-0.3,0.7-1.6,0.9-1.9
							l-0.1,0.2l0.1-0.2c-0.2,0.5-0.8,1.6-1,2c0,0.2-0.1,0.2,0,0.2c-0.1,0.2-0.1,0.3-0.2,0.3l0.1,0.2c0.1-0.4,0.2-0.4,0.4-0.7
							l-0.3,0.4c0.1-0.4,0.5-1.1,0.6-1c0,0.2-0.3,0.7-0.3,0.9c0.1-0.1,0.2-0.2,0.2-0.1L26,8.5c0,0.2,0.3-0.5,0.2-0.1
							c0,0-0.1,0.5,0,0.3c0.1-0.5,0.7-1.9,0.8-2.3c0,0-0.1,0.5-0.1,0.7c-0.1,0.4-0.4,0.9-0.5,1.2c0-0.1,0.1-0.2,0.1-0.3
							c0,0.1-0.1,0.3-0.1,0.3C26.6,8,26.5,8.4,26.6,8c0.1-0.1,0,0.1,0.1,0.1c0.1-0.3,0.4-0.9,0.5-1c0,0.1-0.1,0.2-0.1,0.3
							c0.1,0.1,0.1,0.3,0.1,0.3c0,0.1,0,0.2-0.1,0.4c0-0.1,0.1-0.2,0.1-0.2c-0.1,0.4-0.1,0-0.2,0.5c0.1-0.2,0.2-0.3,0.3-0.4
							c0.1-0.4-0.1-0.1-0.2,0c0.2-0.5,0.5-1,0.6-1.2c0.1-0.1-0.1,0.3-0.1,0.3c0.1,0.1,0.5-0.9,0.4-0.4c-0.1,0.3-0.2,0.7-0.3,0.9
							c-0.1,0.1,0-0.2-0.1-0.2l0,0.2c-0.1,0.1-0.1,0.2-0.1,0.1c-0.1,0.3,0.2,0.1,0.2,0.5C27.9,7.9,28,7.8,28,7.6l0,0
							c0.1-0.3,0.2-0.3,0.2-0.5c0.1-0.2,0.3-0.4,0.3-0.3l-0.1,0.4c0-0.1,0-0.2,0-0.1c0.1-0.2-0.1,0.5,0.1,0.1L28.5,7
							c0.1-0.2,0.3-0.5,0.3-0.4c0.1-0.4,0,0,0.1-0.4c-0.2,0.5-0.1-0.1-0.3,0.5c0.1-0.5,0-0.2,0.1-0.7c0,0.1-0.1,0.2-0.1,0.2
							c0,0,0,0.1-0.1,0.1c0,0,0,0,0,0c0,0,0,0,0,0c0,0,0,0,0,0c0,0.1,0,0.1,0,0.2c-0.1,0.3-0.2,0.2-0.3,0.4c0-0.1,0.1-0.1,0.1-0.3
							l-0.1,0.2c0.1-0.3,0.1-0.5,0.2-0.6l-0.1,0c0-0.2,0-0.2-0.1-0.1c0-0.1-0.2,0.3-0.1,0.1l-0.2,0.1l0-0.1C28,6,27.8,6.5,27.9,5.9
							c-0.1,0.1-0.1,0.1-0.1,0l0.1-0.2c-0.1,0.1,0-0.3-0.1,0c0.2-0.7-0.1-0.2-0.2-0.3l-0.1,0.3c0,0-0.1,0-0.2,0.1l-0.1,0.3
							c-0.1,0.2-0.1-0.2-0.1-0.2c0-0.1,0.1-0.1,0,0c0.1-0.7-0.4,0.4-0.3-0.1c-0.1,0.1-0.1,0.1-0.1,0c0,0,0,0,0,0c0,0,0,0,0,0
							c0-0.1,0-0.1,0-0.2c0,0.1,0,0.1,0,0.2c0,0-0.1,0-0.1,0.1l0.1-0.3c0,0,0,0,0,0c0-0.1-0.1,0.1-0.1,0.4c0,0-0.1,0.1-0.1,0.2
							c0.2-0.5-0.1,0.1,0-0.4c-0.1,0.2-0.2,0.1-0.4,0.7c0-0.1,0-0.1,0-0.1c0-0.1,0-0.1-0.1,0l0.1-0.4l-0.2,0.5
							c0-0.2,0.1-0.4,0.2-0.7c-0.3,0.4-0.1,0.1-0.4,0.5l0.1-0.2c0,0-0.2,0.3-0.1,0.1c0.1-0.5-0.3-0.2-0.3-0.7
							c-0.2,0.7,0-0.3-0.2,0.2c0.1-0.2,0.1-0.3,0.1-0.4c-0.1,0.1,0-0.3-0.2,0.1c0.1-0.2,0.1-0.2,0.1-0.3c0,0-0.1,0.1,0,0
							c0-0.1,0.1-0.1,0.1-0.2c-0.1,0-0.3,0.5-0.5,1c0-0.2,0-0.2-0.1,0.1c0-0.2,0.1-0.3,0.2-0.4c0,0-0.1-0.3-0.2,0.1c0-0.1,0,0-0.1,0
							c-0.1,0,0-0.1-0.1-0.1l0,0.1c-0.2,0.5-0.1,0.1-0.2,0.1l0,0c0-0.4-0.1,0.1-0.1-0.3l-0.1,0.3c-0.2,0.6,0-0.4-0.1-0.2l0,0.2
							c-0.1,0.2,0.2-0.9,0.2-1c0-0.1,0-0.1,0.1-0.1c0-0.4-0.2,0.4-0.3,0.4c0.1-0.2,0.2-0.5,0.2-0.6c0-0.2-0.4,0.6-0.3,0.2
							c0,0.2-0.1,0.3-0.2,0.4c-0.1,0,0.1-0.7-0.1-0.2c0,0,0-0.1,0-0.1c-0.1,0.1-0.2,0.2-0.3,0.4c0.3-1-0.4,0.4-0.1-0.5l-0.1,0l0-0.1
							c-0.1-0.1-0.2,0.1-0.3,0.3c0-0.1,0.1-0.2,0.1-0.2c0-0.2-0.1-0.2-0.3,0.2l0.1-0.3c-0.1,0.2,0-0.5-0.2-0.2c0,0,0-0.1,0.1-0.1
							c-0.3,0.3,0-0.9-0.4,0.1L22,4.7c0.1,0.1-0.2,0.5-0.2,0.7c-0.1,0,0-0.4,0.1-0.4l0,0.1c0.2-0.6,0-0.3,0.1-0.6
							c-0.2,0-0.3-0.4-0.5-0.5l-0.1,0.5l-0.1-0.1c0-0.1,0.1-0.4,0.1-0.3c0.1-0.3-0.2,0.2-0.2,0.3c0-0.2,0.2-0.5,0.2-0.5l-0.1,0
							l0,0.1c-0.1,0.2-0.2,0.4-0.2,0.3c0-0.1,0.1-0.3,0.1-0.3c0,0,0,0,0,0l-0.1-0.1L21,4c-0.1,0.2-0.1,0-0.2,0.4
							C21,3.7,20.6,4,20.7,3.8c-0.1,0.2-0.2,0.2-0.2,0.2c0,0.1-0.2,0.5-0.2,0.4c0.3-0.8,0-0.4,0.2-1c-0.1,0.4-0.2,0-0.3,0.6
							c0-0.1,0.1-0.3,0.2-0.5c-0.2,0.3-0.2-0.3-0.3-0.2c0,0.1-0.1,0.3-0.2,0.4l0.1-0.6c0,0-0.3,0.6-0.2,0.2c0,0.1-0.1,0.2-0.1,0.3
							c-0.1-0.6-0.7,0.2-0.6-0.9C19,3,19,3,18.9,3c0,0.1-0.1,0.3-0.2,0.4l0-0.4c-0.2,0.4-0.1,0-0.3,0.4l0.1-0.1
							c-0.2,0.4-0.3,1-0.5,1.6c0.2-0.5-0.2,0.8,0.2,0.1c0,0.1-0.1,0.2-0.1,0.3c0.1-0.2,0.2-0.3,0.2-0.2l0,0.1c0.2,0,0.1,0.3,0.2,0.5
							l0.1-0.3c0,0.1,0,0.1,0,0.2c0.2-0.4-0.1-0.1,0.1-0.5c-0.2,0.6,0.2,0.1,0,0.8c0,0,0.1-0.3,0.2-0.3l-0.1,0.2l0.1-0.2
							c0,0.1,0,0.3-0.1,0.4c0,0,0,0-0.1,0c0,0.2,0.1,0,0.1,0l0-0.1c0.2-0.1,0.3,0.2,0.5-0.1l0-0.1c0.2-0.2,0,0.2,0.2,0.1l0,0
							c0.1-0.1,0.1-0.2,0.2-0.2c-0.1,0.1-0.1,0.3-0.2,0.5c0.2-0.2,0.1-0.2,0.4-0.7L20,5.7c0.1-0.2,0.1-0.3,0.2-0.3
							c-0.1,0.2-0.1,0.4-0.2,0.6c-0.1,0.5,0.4-0.4,0.1,0.3c0.3-0.6,0-0.4,0.1-0.5c0.1-0.2,0.2-0.4,0.2-0.4c0,0-0.2,0.8-0.1,0.8
							c0,0,0,0,0,0c0,0.2,0.1-0.2,0.1,0.1c0.2-0.4,0,0,0.2-0.4L20.5,6c0.1-0.1,0.4-0.7,0.3-0.4c0,0.1-0.1,0.2-0.2,0.3
							c0,0.2,0.1-0.1,0,0.1c-0.2,0.5-0.1,0.1-0.3,0.4c-0.1,0.2,0.2-0.3,0,0.2c0.3-0.6,0.1,0.1,0.3-0.4l-0.1,0.3c0,0,0.1-0.2,0.1-0.2
							l-0.2,0.4c0.2-0.3,0,0.3,0.1,0.2c-0.1,0,0.1-0.4,0.1-0.6C21,6,20.5,7.1,20.7,7c0,0,0-0.2,0.1-0.3c0,0.1,0,0.2,0,0.4
							c0.1,0,0.1-0.3,0.2-0.5c-0.1,0.4,0.1-0.1,0.2-0.2L21,6.6c0,0.2,0.3-0.6,0.3-0.3l-0.2,0.4l0.1-0.1l-0.1,0.3
							c0.1-0.2,0.1-0.2,0.2,0c0.1-0.2,0.2-0.5,0.3-0.5c0,0.2-0.1,0.3,0,0.3c-0.1,0.2-0.2,0.4-0.1,0.1c0,0.1-0.1,0.2-0.1,0.3
							c0,0.2,0.1,0.1,0.1,0.1c0,0,0,0,0-0.1l0.3-0.4c0,0.1-0.1,0.2-0.1,0.3c0,0,0.1-0.2,0.1-0.2c-0.1,0.2-0.2,0.5-0.3,0.6l0.2-0.2
							c0,0.1-0.1,0.3-0.1,0.4c0,0.2,0.3-0.4,0.3-0.2c0,0,0-0.1,0.1-0.1c0,0.1,0,0.4,0.2,0.1l-0.1,0.4C21.9,7.6,22,7.2,22.1,7
							C22.3,6.9,22,7.4,22,7.5C22.1,7.3,22.4,6.9,22.2,7.3C22.2,7.4,22.2,7.3,22.2,7.3z M23,7.4C23,7.5,22.9,7.6,23,7.4
							C23.1,7.1,23,7.3,23,7.4z M24.4,7.1C24.4,7.2,24.4,7.2,24.4,7.1C24.4,7,24.4,7,24.4,7.1z M28.3,6.3
							C28.3,6.3,28.3,6.3,28.3,6.3C28.3,6.1,28.3,6.2,28.3,6.3z M28.3,6.4c0,0,0-0.1,0-0.1C28.3,6.4,28.3,6.4,28.3,6.4
							C28.3,6.4,28.3,6.5,28.3,6.4z M21.2,3.8L21.2,3.8C21.1,4,21.1,3.9,21.2,3.8z"/>
						<path class="st0" d="M24.1,7.5c0-0.1,0-0.1,0.1-0.2C24.2,7.4,24.1,7.4,24.1,7.5z"/>
						<path class="st0" d="M21.7,7.3C21.7,7.3,21.7,7.3,21.7,7.3C21.7,7.3,21.7,7.3,21.7,7.3L21.7,7.3z"/>
						<path class="st0" d="M26.4,8.5c0,0,0-0.1,0-0.2C26.4,8.4,26.3,8.5,26.4,8.5z"/>
						<path class="st0" d="M28.9,6L28.9,6c0,0.1-0.1,0.1-0.1,0.2C28.8,6.1,28.8,6,28.9,6z"/>
						<path class="st0" d="M28.5,8C28.6,8,28.5,8,28.5,8l0.1-0.2C28.6,7.8,28.5,7.9,28.5,8z"/>
						<path class="st0" d="M28.5,7c-0.1,0.2,0,0.2,0,0.1c0,0,0,0,0,0C28.7,6.8,28.6,6.9,28.5,7z"/>
						<path class="st0" d="M28.5,7.2C28.6,7.2,28.6,7.2,28.5,7.2C28.6,7,28.6,7.1,28.5,7.2z"/>
						<path class="st0" d="M28.5,6.3c0,0.1,0.1-0.3,0.1-0.2C28.7,5.8,28.3,6.4,28.5,6.3z"/>
						<polygon class="st0" points="28.2,7.9 28.3,7.5 28.2,7.8 						"/>
						<path class="st0" d="M28.1,7.5l0,0.1C28.1,7.6,28.1,7.6,28.1,7.5C28.1,7.5,28.1,7.4,28.1,7.5z"/>
						<path class="st0" d="M28.2,7.5C28.2,7.6,28.2,7.6,28.2,7.5C28.2,7.5,28.2,7.5,28.2,7.5z"/>
						<polygon class="st0" points="28.1,7.9 28.2,7.9 28.1,7.8 						"/>
						<path class="st0" d="M27.6,7.3L27.6,7.3c-0.1,0.2-0.1,0.2-0.1,0.2C27.5,7.4,27.6,7.4,27.6,7.3z"/>
						<path class="st0" d="M27.4,8.2c0-0.1,0-0.1,0.1-0.2l-0.1,0.4L27.4,8.2z"/>
						<path class="st0" d="M27.3,8.2c0,0.1-0.2,0.3-0.1,0.3C27.2,8.4,27.3,8.3,27.3,8.2z"/>
						<polygon class="st0" points="26.7,7.4 26.7,7.4 26.9,6.8 						"/>
						<path class="st0" d="M25.4,8.7c0,0.2,0.2-0.4,0.1-0.2c0.1-0.1,0-0.2,0.1-0.3C25.5,8.3,25.6,8.3,25.4,8.7z"/>
						<path class="st0" d="M25.6,8.2C25.7,8.2,25.7,8.2,25.6,8.2C25.7,8.2,25.6,8.2,25.6,8.2z"/>
						<polygon class="st0" points="18.9,2.6 18.9,2.5 18.8,2.7 						"/>
						<path class="st0" d="M18.6,3.1l0.1-0.4L18.6,3.1C18.6,3,18.7,3,18.6,3.1z"/>
						<path class="st0" d="M22.8,8.2L22.8,8.2C22.9,8,22.9,8,22.9,8L22.8,8.2z"/>
						<polygon class="st0" points="22.4,7.7 22.4,7.8 22.5,7.4 						"/>
						<path class="st0" d="M21.8,8C21.8,8.1,21.9,8,21.8,8C21.8,8.1,22,7.6,21.8,8z"/>
					</g>
				</g>
			</g>
		</g>
	</g>
	<g>
		<g>
			<g>
				<g>
					<g>
						<g>
							<path class="st0" d="M19.2,27.6c0.1,0,0-0.2,0-0.3C19.1,27.3,19.2,27.6,19.2,27.6z"/>
							<polygon class="st0" points="18.2,28.1 18.2,28 18.1,28.3 							"/>
							<path class="st0" d="M17.3,28c0,0.5,0.3,0,0.5,0.2l0,0.1l0.1-0.4C17.7,28,17.4,28.2,17.3,28z"/>
							<path class="st0" d="M17.1,26.9C17,27.1,16.9,27.1,17.1,26.9C17.1,27,17.1,27,17.1,26.9C17.1,27,17.1,27,17.1,26.9z"/>
							<path class="st0" d="M17.1,27C17.2,27,17.1,26.8,17.1,27L17.1,27z"/>
							<path class="st0" d="M16.7,27l0.2-0.1c0-0.1-0.1-0.2,0-0.2C16.7,26.7,16.7,26.8,16.7,27z"/>
							<path class="st0" d="M16.5,27.3L16.5,27.3C16.6,27.2,16.6,27.2,16.5,27.3z"/>
							<path class="st0" d="M16.8,27.1l-0.2,0.1C16.6,27.3,16.6,27.4,16.8,27.1C16.6,27.3,16.7,27.2,16.8,27.1z"/>
							<path class="st0" d="M16.8,27.2c0,0.1,0.1,0.2,0,0.3C17,27.5,17.1,27.2,16.8,27.2z"/>
							<path class="st0" d="M17.2,28.5l0.1,0.1l0.1-0.1C17.3,28.6,17.2,28.3,17.2,28.5z"/>
							<path class="st0" d="M16.1,26.5c0,0.1,0,0.3-0.1,0.4l0.1-0.1C16.1,26.8,16.1,26.7,16.1,26.5z"/>
							<path class="st0" d="M16,26.9l-0.2,0.1C16,27.1,16,27,16,26.9z"/>
							<polygon class="st0" points="16.4,27.8 16.7,27.5 16.3,27.8 							"/>
							<polygon class="st0" points="15.7,26.4 15.8,26.2 15.6,26.5 							"/>
							<path class="st0" d="M15.4,26.3c0.1-0.2,0.1-0.3,0.2-0.4c-0.1,0-0.2,0.1-0.3,0.2C15.3,26.1,15.3,26.1,15.4,26.3z"/>
							<path class="st0" d="M15,26.3c0.1,0,0.1-0.1,0.2-0.1C15.1,26.1,15.1,26.2,15,26.3z"/>
							<path class="st0" d="M15.7,26.9c0-0.1,0-0.2,0-0.3L15.7,26.9L15.7,26.9z"/>
							<path class="st0" d="M15.6,26.9L15.6,26.9C15.6,26.9,15.5,26.9,15.6,26.9C15.5,26.9,15.6,26.9,15.6,26.9z"/>
							<path class="st0" d="M15.7,26.9L15.7,26.9C15.7,27,15.7,27,15.7,26.9z"/>
							<path class="st0" d="M16.1,27.4c-0.1,0.1-0.3,0.2-0.2,0.5C16,27.8,15.9,27.6,16.1,27.4z"/>
							<path class="st0" d="M15.6,27.3l0.1,0.1c0-0.1,0-0.2,0.1-0.2L15.6,27.3z"/>
							<polygon class="st0" points="15.5,27.3 15.6,27.3 15.6,27.2 							"/>
							<path class="st0" d="M15.1,26.6c-0.1,0.1-0.2,0.1-0.2,0c0,0.1,0.1,0.1,0.2,0.2C15.1,26.7,15.2,26.6,15.1,26.6z"/>
							<path class="st0" d="M15.3,26.8L15.3,26.8C15.3,26.8,15.3,26.8,15.3,26.8z"/>
							<polygon class="st0" points="14.2,26.3 14.2,26.4 14.2,26.3 							"/>
							<path class="st0" d="M15,26.9c0,0.1,0.1,0,0.2,0C15.1,26.9,15.1,26.8,15,26.9C15,26.9,15,26.9,15,26.9z"/>
							<path class="st0" d="M14.8,26.3c0,0.1,0,0.1,0,0.2C14.8,26.4,14.8,26.2,14.8,26.3z"/>
							<path class="st0" d="M15.3,26.7C15.3,26.7,15.3,26.7,15.3,26.7C15.3,26.6,15.3,26.7,15.3,26.7z"/>
							<path class="st0" d="M15.3,26.7c0,0-0.1,0.1-0.1,0.1C15.2,26.8,15.3,26.8,15.3,26.7C15.3,26.8,15.3,26.7,15.3,26.7z"/>
							<path class="st0" d="M13.1,27.7c0.1-0.2,0.4-0.3,0.4,0c0.2-0.1,0.5-0.9,0.7-1.4c-0.1,0.1-0.1,0.2-0.3,0.2
								c0,0.1,0.1,0.5-0.1,0.6c-0.2,0-0.1-0.2-0.1-0.3c-0.1,0.3-0.5,0.3-0.7,0.7l0.2,0C13.2,27.6,13.1,27.7,13.1,27.7z"/>
							<path class="st0" d="M14.4,26.5L14.4,26.5c0-0.1,0-0.2,0.1-0.4c-0.1,0.1-0.2,0.1-0.3,0.2C14.3,26.4,14.4,26.4,14.4,26.5
								L14.4,26.5z"/>
							<path class="st0" d="M14.7,26.6c-0.2,0.2-0.3,0.3-0.4,0.6c0.2,0.1,0.2-0.2,0.4-0.2C14.4,26.9,14.8,26.9,14.7,26.6
								c0.1,0,0.1,0,0.2,0c0-0.1-0.1-0.1-0.1-0.2l0,0l0,0l0,0C14.8,26.5,14.8,26.5,14.7,26.6L14.7,26.6
								C14.7,26.6,14.7,26.6,14.7,26.6C14.7,26.5,14.7,26.5,14.7,26.6l0.1-0.1l0,0l-0.3,0C14.5,26.6,14.6,26.6,14.7,26.6z"/>
							<path class="st0" d="M15.5,28.5C15.5,28.4,15.5,28.4,15.5,28.5C15.5,28.4,15.5,28.4,15.5,28.5z"/>
							<path class="st0" d="M15.5,28.3c0,0,0.1-0.1,0.1-0.1c0,0.1,0,0.1-0.1,0.2c0.1-0.1,0.2-0.1,0.1-0.3l0,0
								c-0.1-0.1-0.1-0.5-0.1-0.5C15.5,27.8,15.5,28,15.5,28.3z"/>
							<path class="st0" d="M15,27.5c-0.1,0-0.2,0-0.3,0l0,0.3l0.1-0.1C14.9,27.8,14.9,27.6,15,27.5z"/>
							<polygon class="st0" points="14.2,26.2 14.4,25.9 14.1,26.2 							"/>
							<polygon class="st0" points="14,26.1 14.1,25.8 14,25.9 							"/>
							<path class="st0" d="M7.7,10.1l0-0.1C7.7,10.1,7.7,10.1,7.7,10.1z"/>
							<path class="st0" d="M7.4,10.7l0.1,0.1C7.4,10.7,7.4,10.6,7.4,10.7z"/>
							<path class="st0" d="M9.5,20.7c0.2-0.2,0.5-0.4,0.2-0.3l-0.3,0.1C9.6,20.6,9.5,20.6,9.5,20.7z"/>
							<path class="st0" d="M7.3,15.7L7.3,15.7c0,0.1,0.1,0.1,0.2,0.1C7.4,15.7,7.4,15.7,7.3,15.7z"/>
							<path class="st0" d="M6.2,15.4l0.2-0.1C6.3,15.3,6.2,15.4,6.2,15.4z"/>
							<path class="st0" d="M9.6,7.3L9.5,7C9.4,7.1,9.5,7.2,9.6,7.3z"/>
							<path class="st0" d="M11.6,24.3c0-0.1,0-0.2,0-0.3C11.5,24.2,11.4,24.4,11.6,24.3z"/>
							<path class="st0" d="M10.2,11.9c0-0.1-0.1-0.1-0.1-0.1C10.1,11.8,10.1,11.8,10.2,11.9z"/>
							<path class="st0" d="M11.4,23.8C11.4,23.9,11.4,23.9,11.4,23.8c0.1,0.1,0.1,0.1,0.2,0.2C11.6,23.9,11.6,23.8,11.4,23.8z"/>
							<path class="st0" d="M21.4,3.7C21.4,3.8,21.4,3.8,21.4,3.7C21.4,3.7,21.4,3.7,21.4,3.7z"/>
							<path class="st0" d="M23.5,7.5c0,0-0.1,0-0.1,0C23.4,7.5,23.5,7.5,23.5,7.5z"/>
							<path class="st0" d="M13.1,25.3C13.1,25.3,13.1,25.3,13.1,25.3L13.1,25.3z"/>
							<path class="st0" d="M12.7,26.4c0,0-0.1,0-0.1,0.1C12.6,26.4,12.6,26.4,12.7,26.4z"/>
							<path class="st0" d="M9.6,24.4L9.6,24.4C9.6,24.4,9.6,24.4,9.6,24.4z"/>
							<path class="st0" d="M13.1,25.5c0,0,0-0.1,0-0.1C13.1,25.4,13.1,25.4,13.1,25.5z"/>
							<path class="st0" d="M13.1,25.4C13.2,25.4,13.2,25.4,13.1,25.4C13.2,25.4,13.2,25.3,13.1,25.4z"/>
							<path class="st0" d="M13,25.3C13,25.3,13,25.3,13,25.3C13.1,25.3,13.1,25.3,13,25.3C13.1,25.3,13,25.3,13,25.3z"/>
							<path class="st0" d="M14.9,5.1C14.9,5.1,14.9,5.1,14.9,5.1C14.9,5,14.9,5,14.9,5.1z"/>
							<polygon class="st0" points="6.2,19.7 6.2,19.7 6.2,19.7 							"/>
							<path class="st0" d="M5.9,19.5c0.4,0.1,0.3,0.1,0.3,0.2L7,19.4L5.9,19.5z"/>
							<path class="st0" d="M8.5,8.9l-0.3,0C8,8.4,8.2,8.3,7.8,8.3C8.5,8.9,7.4,9,8.1,9.5l-0.2,0c0,0,0-0.1,0-0.1
								C7.4,9.4,8.3,10,8,10.2c-0.1,0.1-0.3,0.1-0.3-0.1l0.1,0.3c-0.1,0.1-0.2,0-0.1-0.1l-0.1,0.4l0,0c0.1,0.1,0.2,0.3,0.3,0.4
								c-0.2,0-0.1-0.1-0.2-0.1l0.1,0.3c-0.2,0-0.4-0.3-0.3-0.4c-0.9-0.2,0.1,0.3-0.5,0.4l0-0.2c-0.5-0.1-0.4,0.1-0.8,0.2
								c0.2,0,0.9-0.1,1,0.2c-0.1,0-0.2,0.1,0,0.3c-0.3-0.1-0.3,0-0.3,0.2l-0.4-0.2c0,0.2,0.3,0.3,0.4,0.4c-0.1,0.2-0.4,0.1-0.7,0
								c-0.2,0.3,0.6,0,0.5,0.3c-0.2,0.2-0.2,0.4,0,0.8c-0.2,0.1-0.2-0.1-0.4-0.1l0.3,0.2c0,0-0.1,0-0.2,0c0.1,0.2,0.4,0.1,0.5,0.3
								c0.4,0.2-0.8,0.2-0.3,0.6c-0.1,0-0.2-0.1-0.4-0.1c0.3,0.4,0.2,0.3,0.6,0.7l-0.3,0.2c0.3-0.1,0.7,0.2,0.9,0.4
								c0.2,0,0.3-0.1,0.4-0.1l0.2,0.3c-0.1,0-0.2,0-0.4-0.1c0,0,0.1,0,0.1,0.1c-0.2,0.1-0.4,0-0.6-0.1c0.1,0,0.2,0,0.3-0.1
								c-0.2-0.1-0.5-0.2-0.8-0.2c0,0,0.1,0.1,0.1,0.1c-0.1,0-0.1,0-0.2,0c0,0,0,0,0.1,0.1l-0.5,0l0.2,0c-0.1,0.1-0.2,0.3-0.3,0.4
								c0.4,0.3,1.1,0.6,1.3,1c-0.3-0.1-0.6,0-1,0c0.4-0.1-0.2-0.4-0.1-0.6c-0.1,0.1-0.2,0.1-0.3,0.1L6.2,17c-0.3,0-0.3,0.1-0.4,0.2
								c0.6-0.1,0.4,0.3,0.7,0.5c-0.2,0-0.4,0-0.4-0.2c-0.5,0.3,0.8,0.3,0.4,0.5c0-0.1,0-0.1-0.1-0.1c0.2,0.1,0.1,0.4-0.1,0.4l0-0.1
								c-0.1,0.4,0.1,1,0.7,1c-0.1,0-0.7,0.1-0.8,0.1c0.6,0.1,1.3,0.2,1.9,0.2c-0.5,0-1.5,0.5-1.9,0.2c-0.1,0.1-0.1,0.2,0.1,0.4
								C6.4,20,6.9,19.8,7,19.8c-0.5,0.3-0.2,0.2-0.6,0.6c0.1-0.1,0.8-0.2,0.8-0.1c-0.1,0-0.7,0.2-0.8,0.2l0.8,0.1
								c-0.1,0-0.6,0.2-0.8,0.3c0.1-0.1,0.1,0.3,0.2,0.3l0.1-0.2c0,0.4,1.1,0,1.2,0.4c-0.2,0-0.9,0.2-0.9,0.4c0.4,0,1.8-0.3,2.2-0.2
								L9,21.8l0.3,0.1c-0.6,0.1-1.8,0.2-2.3,0.2c-0.1,0.2-0.2,0.1-0.1,0.3c-0.2,0.2-0.3,0-0.4-0.1c0,0.2,0,0.4,0.1,0.5
								c0.4-0.2,0.6,0.2,0.9,0l-0.6-0.3c0.4-0.2,1.3-0.2,1.3,0.1C8,22.8,7.4,22.9,7.3,23c0.2,0,0.4,0.2,0.3,0.2l-0.3,0
								c-0.1,0.3,0.6,0,0.4,0.4c0,0.1-0.4,0.5-0.1,0.4c0.4-0.4,1.7-1.1,2.1-1.3c0,0-0.2,0.6-0.4,0.8c-0.3,0.3-0.9,0.3-1.1,0.6
								C8.2,24,8.4,24,8.5,24c0,0.1-0.3,0.2-0.2,0.3c0.4-0.2,0.2,0.3,0.4-0.1c0.2,0.1,0,0.2,0.2,0.4c0.2-0.2,0.9-0.4,1.1-0.4
								c-0.1,0.1-0.2,0.2-0.2,0.2c0.2,0.3,0.1,0.6,0.3,0.8c-0.1,0.1-0.1,0.3-0.2,0.4c0.1,0,0.2-0.1,0.3,0c-0.2,0.4-0.2-0.1-0.4,0.3
								c0.2-0.2,0.4,0,0.7,0c0.3-0.3-0.2-0.3-0.4-0.3c0.4-0.4,1-0.6,1.4-0.5c0.3,0.1-0.2,0.3-0.1,0.3c0.3,0.4,0.9-0.4,0.9,0.1
								c-0.1,0.4-0.4,0.5-0.6,0.7c-0.2,0-0.1-0.4-0.2-0.5l0,0.2c-0.1,0-0.3,0-0.3-0.1c-0.1,0.3,0.5,0.6,0.7,1
								c0.1-0.1,0.3-0.1,0.3-0.2l-0.1,0c0.1-0.3,0.4-0.2,0.4-0.4c0.2-0.1,0.6-0.2,0.6,0l-0.2,0.4c0.1-0.1,0-0.3-0.1-0.2
								c0.2-0.1,0,0.6,0.3,0.3l0-0.3c0.2-0.1,0.6-0.4,0.7-0.2c0.1-0.4-0.1,0,0.1-0.4c-0.2,0.5-0.4-0.2-0.5,0.3
								c0.2-0.5-0.1-0.3,0.1-0.8c-0.1,0.1-0.1,0.2-0.2,0.1c0,0-0.1,0.1-0.1,0.1l0,0l0,0c0,0,0,0,0,0c0,0.1,0,0.1-0.1,0.2
								c-0.2,0.2-0.4,0-0.6,0.1c0-0.1,0.1-0.1,0.2-0.2l-0.2,0.1c0.2-0.2,0.1-0.5,0.4-0.5c0,0-0.1-0.1-0.1-0.1c0-0.2,0-0.3-0.2-0.3
								c0-0.1-0.4,0.1-0.2,0l-0.3-0.1l0-0.1c-0.2-0.2-0.8-0.1-0.6-0.7c-0.1,0-0.3,0-0.3-0.2l0.2-0.2c-0.1,0,0-0.4-0.3-0.3
								c0.5-0.5-0.2-0.5-0.2-0.8l-0.3,0.2c-0.1-0.1-0.2-0.2-0.4-0.3l-0.2,0.2c-0.3,0,0-0.5-0.1-0.7c0.1,0,0.1,0,0.1,0.1
								c0.5-0.5-0.7-0.4-0.4-0.8c-0.1,0-0.1-0.1-0.1-0.2c0,0,0,0,0,0c0,0,0,0,0,0c0,0,0.1-0.1,0.1-0.1c-0.1,0.1-0.1,0.1-0.1,0.1
								c0,0-0.1-0.1-0.2-0.2l0.3-0.1c0,0,0,0,0,0c0.1-0.1-0.2,0-0.4,0.1c-0.1,0-0.1,0-0.2,0c0.5-0.2-0.2-0.1,0.3-0.4
								c-0.3,0-0.3-0.3-0.8-0.2c0.1,0,0.1-0.1,0.1,0c0-0.1,0.1-0.2-0.1-0.3l0.4-0.1l-0.6-0.1c0.2-0.2,0.4-0.2,0.7-0.2
								c-0.5-0.2-0.2-0.2-0.7-0.4l0.3,0c0-0.1-0.4-0.2-0.2-0.3c0.4-0.2,0-1,0.4-1.5c-0.8,0.1,0.4-0.2-0.2-0.3c0.2,0,0.3-0.1,0.4,0
								c-0.2-0.3,0.3-0.3-0.2-0.6c0.2,0,0.3,0.1,0.4,0.1c0,0-0.2-0.1,0-0.1c0.1,0,0.1,0,0.2,0.1c0-0.2-0.6-0.3-1.1-0.4
								c0.3-0.1,0.2-0.2-0.1-0.3c0.2,0,0.4-0.1,0.4,0.1c0-0.1,0.3-0.5-0.1-0.6c0.1,0,0-0.1,0-0.2c0.1-0.2,0.1-0.2,0.1-0.4l-0.1,0
								c-0.5-0.2-0.1-0.2-0.1-0.4l0,0C8.8,14,8.2,14,8.7,13.8l-0.3-0.1c-0.6-0.2,0.5-0.2,0.3-0.5l-0.2,0c-0.2-0.2,1,0,1.1-0.1
								c0.1,0,0.1,0.1,0.1,0.1c0.5-0.1-0.4-0.2-0.4-0.4c0.2,0.1,0.5,0.3,0.6,0.2c0.2,0-0.5-0.7,0-0.7c-0.2,0-0.3-0.1-0.4-0.2
								c0-0.2,0.8-0.1,0.4-0.5c0.1,0,0.1,0,0.1,0c-0.1-0.2,0-0.5-0.2-0.7c0.9,0.5,0-0.9,0.8-0.4l0.2-0.3l0.1,0.1
								c0.2-0.1,0.1-0.4,0-0.6c0.1,0,0.1,0.1,0.2,0.1c0.4-0.1,0.4-0.2,0.2-0.7l0.3,0.2c-0.1-0.2,0.7,0,0.7-0.5c0,0,0.1,0.1,0.1,0.1
								c0.1-0.6,1.3,0.2,0.7-0.9c0-0.1,0-0.3,0.1-0.4c-0.3,0.1-0.2-0.5-0.5-0.5c0.1-0.1,0.5,0.1,0.4,0.2l-0.1,0
								c0.3,0.5,0.5,0,0.7,0.3c0.3-0.2,0.6-0.3,0.9-0.3c0.3-0.1,0.6-0.1,0.9-0.2l-0.2-0.4l0.2,0c0.1,0.1,0.2,0.3,0,0.4
								c0.2,0.2,0.2-0.3,0.1-0.4c0.3,0.1,0.1,0.6,0.2,0.5l0.1-0.1l0,0c0-0.2,0-0.4,0.2-0.5C16.2,6.8,16.2,7,16.2,7c0,0,0,0,0.1,0
								l0.3,0l-0.2-0.3c0.1-0.2,0.3,0,0-0.4c0.2,0.3,0.4,0.3,0.7,0.2c0.2,0,0.5-0.1,0.5,0c0.1-0.3,0.3-0.3,0.5-0.3
								C18.1,6,18,5.6,18.2,5.7c0,0.9,0.4,0.4,0.5,1c-0.1-0.4,0.5-0.1,0.3-0.7c0.2,0.1,0,0.3,0.1,0.5c0.2-0.2,0.4-0.1,0.7,0
								c0.1,0,0.3,0.1,0.3,0.1c0.1,0,0.1,0,0.2,0c0-0.1,0-0.3,0.1-0.5c0,0.2,0,0.4,0,0.6c0.1,0,0.2-0.6,0.2-0.2c0-0.1,0-0.2,0.1-0.3
								c0.7,0.8,2,0.2,2.6,1.5c-0.1-0.3,0-0.2,0.1-0.2c0-0.1,0.1-0.3,0.1-0.4l0.3,0.5c0.2-0.4,0.4,0.1,0.6-0.3l-0.1,0
								c0.3-0.4,0.1-1.1,0.3-1.7c-0.3,0.5-0.2-0.9-0.8-0.3c0-0.1,0.1-0.2,0.1-0.3c-0.2,0.2-0.3,0.3-0.4,0.1l0-0.1
								c-0.5-0.1-0.6-0.4-1.1-0.7l-0.1,0.3c-0.1-0.1-0.1-0.2-0.1-0.3c-0.3,0.4,0.3,0.1,0,0.6c0-0.6-0.8-0.3-0.7-1
								c-0.2-0.1-0.1,0.4-0.2,0.3l0-0.2l-0.1,0.2c-0.1-0.1-0.2-0.3-0.1-0.5c0,0,0.1,0,0.2,0c-0.2-0.3-0.7-0.1-0.8-0.2
								c0.1,0,0.2,0.1,0.3,0.2c-0.4,0-0.9,0-1.1,0.1c-0.2,0-0.5,0-0.8,0.3l0,0.1c-0.4,0.3-0.3-0.1-0.8,0l0,0
								c-0.1,0.1-0.2,0.2-0.3,0.2c0.1-0.2-0.2-0.3-0.1-0.5c-0.4,0.4-0.2,0.3-0.4,0.8l-0.1-0.2c-0.1,0.2-0.1,0.3-0.3,0.4
								c0.1-0.2-0.2-0.3,0-0.6c-0.6-0.5-0.6,0.6-0.9-0.1c0,0.7,0.5,0.3,0.4,0.4c0.1,0.2-0.1,0.5-0.2,0.5c-0.1,0-0.4-0.8-0.8-0.7
								c0,0,0-0.1,0.1-0.1c-0.2-0.1-0.2,0.3-0.4,0.1c0,0.4-0.2,0.1-0.1,0.6l0.3-0.2c-0.1,0.2-0.1,0.8-0.5,0.7c0-0.1,0-0.3,0.1-0.4
								c-0.1-0.1-0.1,0.2-0.3,0c-0.2-0.5,0.3-0.2,0.4-0.7c-0.2-0.2-0.3,0.5-0.3-0.1c0.1,0.7-0.4,0-0.4,0.6l-0.1-0.3
								c0,0.1,0,0.2-0.1,0.2l0-0.4c-0.1,0.4-0.5-0.1-0.6,0.2c0.4-0.2,0.2,0.3,0.5,0.4c-0.3,0.6-0.6-0.6-1.1-0.2
								c0.1-0.1,0.4,0,0.3,0.2c-0.1,0-0.3,0-0.5-0.2c-0.3,0.3,0.2,0.2,0.2,0.5c-0.3-0.3-0.1,0.2-0.2,0.4l-0.2-0.3
								c-0.5,0.1,0.2,0.6-0.2,0.6l-0.1-0.5L12.1,6l-0.2-0.3c0,0.3-0.1,0.3-0.4,0.4c0.2,0.2,0.3,0.5,0.2,0.6
								c-0.2-0.1-0.1-0.3-0.3-0.1c-0.1-0.2-0.2-0.4,0.1-0.3c0-0.1-0.1-0.2-0.1-0.3C11.1,5.9,11,6.2,11,6.3c0,0,0.1,0,0.1,0L11,6.8
								c-0.1-0.1-0.1-0.2-0.2-0.3c0,0.1,0,0.2-0.1,0.3c-0.1-0.2-0.3-0.4-0.2-0.6c0,0.2-0.1,0.3-0.1,0.5c-0.1-0.1-0.3-0.1-0.4-0.2
								c-0.3,0-0.1,0.7-0.4,0.8c0,0,0,0.1,0,0.2C9.4,7.6,9.1,7.6,9.1,8.1L8.6,7.9C8.5,8.2,9.2,8.1,9.1,8.5C9,8.8,8.7,8.3,8.5,8.3
								c0.1,0.3,0.3,0.8-0.1,0.7C8.4,9,8.5,8.9,8.5,8.9z M7.1,11.5c0-0.1-0.2-0.3,0-0.2C7.4,11.5,7.2,11.5,7.1,11.5z M6.7,16
								c-0.1-0.1,0-0.1,0.1-0.2C6.7,15.9,6.7,15.9,6.7,16z M12.4,25.1L12.4,25.1C12.4,24.9,12.4,25,12.4,25.1z M12.5,25.3
								C12.5,25.3,12.5,25.3,12.5,25.3c0,0,0-0.1,0-0.1C12.4,25.3,12.4,25.3,12.5,25.3z M16.2,6.9L16.2,6.9
								C16.2,6.7,16.2,6.8,16.2,6.9z"/>
							<path class="st0" d="M6.3,15.5c0.1,0,0.1,0,0.2,0C6.4,15.4,6.4,15.4,6.3,15.5z"/>
							<polygon class="st0" points="9.6,7.3 9.7,7.3 9.6,7.3 							"/>
							<path class="st0" d="M8,24.3c0-0.1,0-0.1,0.1-0.2C8.1,24.1,8,24.2,8,24.3z"/>
							<path class="st0" d="M13.7,25.6c-0.1,0-0.1,0-0.2,0c0.1,0,0,0.1,0,0.2C13.6,25.6,13.6,25.5,13.7,25.6z"/>
							<path class="st0" d="M13.7,27.9C13.8,27.8,13.8,27.9,13.7,27.9l0.1-0.1C13.8,27.7,13.7,27.8,13.7,27.9z"/>
							<path class="st0" d="M13.2,26.5c-0.1,0.2,0,0.2,0.1,0.2c0,0,0,0,0,0C13.5,26.4,13.4,26.5,13.2,26.5z"/>
							<path class="st0" d="M13.3,26.7C13.4,26.7,13.4,26.7,13.3,26.7C13.5,26.6,13.4,26.7,13.3,26.7z"/>
							<path class="st0" d="M12.8,25.4c0,0.1,0.2-0.2,0.2-0.1C13.2,25,12.5,25.4,12.8,25.4z"/>
							<polygon class="st0" points="12.8,27.3 12.9,27 12.7,27.2 							"/>
							<path class="st0" d="M12.2,26.6l0.1,0.2c0,0,0.1-0.1,0.1-0.1C12.3,26.6,12.3,26.5,12.2,26.6z"/>
							<path class="st0" d="M12.4,26.7c0,0,0.1,0.1,0.1,0C12.5,26.7,12.5,26.7,12.4,26.7z"/>
							<path class="st0" d="M12.5,27.2L12.5,27.2l-0.1-0.2C12.5,27.1,12.5,27.2,12.5,27.2z"/>
							<path class="st0" d="M10.9,25.4l-0.2-0.1c-0.1,0.1-0.1,0.1,0,0.2C10.8,25.4,10.9,25.5,10.9,25.4z"/>
							<path class="st0" d="M10.7,26.4c0-0.1,0.1-0.1,0.1-0.2l-0.3,0.3L10.7,26.4z"/>
							<path class="st0" d="M10.2,26.1c-0.1,0.1-0.4,0-0.2,0.2C10.1,26.2,10.3,26.3,10.2,26.1z"/>
							<polygon class="st0" points="8.8,23.4 8.9,23.5 9.4,23.1 							"/>
							<path class="st0" d="M6.3,21.6c-0.1,0.3,0.4-0.1,0.3,0.2c0.2,0,0.1-0.2,0.2-0.2C6.6,21.5,6.6,21.4,6.3,21.6z"/>
							<path class="st0" d="M6.8,21.6c0,0,0.1,0,0.1,0C6.9,21.6,6.8,21.6,6.8,21.6z"/>
							<polygon class="st0" points="23.9,7.9 24,8.1 24,7.9 							"/>
							<path class="st0" d="M24.4,7.6L24.3,8l0.2-0.3C24.4,7.6,24.4,7.7,24.4,7.6z"/>
							<path class="st0" d="M6.1,11.6L6.1,11.6c0.2,0.1,0.2,0,0.3,0L6.1,11.6z"/>
							<polygon class="st0" points="7.5,9.7 7.4,9.8 7.8,9.9 							"/>
							<path class="st0" d="M8.2,7.9C8.2,7.9,8.2,8.1,8.1,8.1C8.2,7.9,8.6,8.2,8.2,7.9z"/>
						</g>
					</g>
				</g>
			</g>
		</g>
	</g>
</g>
</svg>
